#!OML:ASF H:\Terrain\Patient Classification 1\Takeo\Monday\TakeoMonday.ASF
:FULLY-SPECIFIED
:DEGREES
278
root 10.5296 17.3362 18.1788 -4.10761 -6.55825 -2.16222
lowerback 5.2234 0.803656 3.59526
upperback 2.44909 1.23787 0.402668
thorax -0.339515 0.642185 -1.66834
lowerneck -10.0857 1.82522 0.340848
upperneck -2.04144 2.43711 -3.89448
head 1.11892 1.13515 -1.18167
rclavicle -3.10648e-014 1.41634e-015
rhumerus -8.47281 13.9141 -84.5737
rradius 51.5971
rwrist -17.8134
rhand -25.6941 18.6183
rfingers 7.12502
rthumb 0.841235 -11.3598
lclavicle -3.10648e-014 1.41634e-015
lhumerus -48.6219 29.5367 68.6357
lradius 15.9353
lwrist 6.17658
lhand -19.6386 21.4728
lfingers 7.12502
lthumb 6.68867 51.3472
rfemur 22.8875 6.55783 26.1769
rtibia 18.6819
rfoot -10.7961 -2.89565
rtoes -25.3991
lfemur -26.5028 -2.83826 -18.5937
ltibia 32.867
lfoot -3.30017 11.7846
ltoes -7.05591
279
root 10.551 17.3303 18.3756 -4.15053 -6.2037 -2.03788
lowerback 5.07267 0.823359 3.5961
upperback 2.46746 1.25667 0.298751
thorax -0.233189 0.654379 -1.77348
lowerneck -10.1288 1.68416 0.171084
upperneck -2.0679 2.26553 -3.71517
head 1.10785 1.05402 -1.10234
rclavicle 1.67818e-014 1.75924e-014
rhumerus -9.04015 13.3928 -84.7587
rradius 51.5896
rwrist -18.0542
rhand -25.6583 18.9168
rfingers 7.12502
rthumb 0.875769 -11.0612
lclavicle 1.67818e-014 1.75924e-014
lhumerus -47.8228 29.3721 68.9613
lradius 16.0474
lwrist 5.82996
lhand -19.7437 21.6662
lfingers 7.12502
lthumb 6.58725 51.5438
rfemur 21.8958 6.03686 25.7611
rtibia 21.7293
rfoot -10.2586 -2.65196
rtoes -27.8453
lfemur -26.5149 -2.57908 -19.0881
ltibia 34.0973
lfoot -3.04027 11.1078
ltoes -3.95778
280
root 10.577 17.3201 18.5674 -4.3339 -5.7349 -1.58504
lowerback 5.10081 0.761613 3.16597
upperback 2.47434 1.15577 0.205313
thorax -0.255204 0.600906 -1.62402
lowerneck -10.0618 1.67633 0.174478
upperneck -2.0838 2.25732 -3.95447
head 1.09558 1.04612 -1.17951
rclavicle 1.39755e-014 -9.86469e-015
rhumerus -9.69353 13.1122 -84.8412
rradius 51.5967
rwrist -17.9566
rhand -25.7196 18.9453
rfingers 7.12502
rthumb 0.816546 -11.0329
lclavicle 1.39755e-014 -9.86469e-015
lhumerus -46.9353 29.0535 69.6905
lradius 16.075
lwrist 6.06533
lhand -20.9667 21.1375
lfingers 7.12502
lthumb 5.40649 51.0486
rfemur 20.9439 5.25562 24.8108
rtibia 24.8578
rfoot -9.25836 -1.92155
rtoes -28.9046
lfemur -26.2258 -2.62107 -19.9121
ltibia 34.9979
lfoot -3.43802 10.9232
ltoes -3.01672
281
root 10.5944 17.3211 18.7456 -4.42454 -5.48289 -1.39595
lowerback 5.31742 0.778292 2.89836
upperback 2.36629 1.17551 0.199857
thorax -0.491806 0.604272 -1.48573
lowerneck -10.2133 1.46442 -0.118903
upperneck -1.79829 2.01541 -3.67194
head 1.19936 0.927119 -1.04894
rclavicle -1.34599e-014 -1.07095e-014
rhumerus -10.5268 12.8642 -84.9633
rradius 51.5451
rwrist -17.8128
rhand -25.8934 18.9829
rfingers 7.12502
rthumb 0.648718 -10.9958
lclavicle -1.34599e-014 -1.07095e-014
lhumerus -46.1524 28.8875 70.211
lradius 16.1629
lwrist 6.1445
lhand -21.3239 20.7904
lfingers 7.12502
lthumb 5.06156 50.71
rfemur 19.783 4.92936 24.3053
rtibia 27.9376
rfoot -7.43242 -1.38019
rtoes -29.1799
lfemur -25.9007 -2.51079 -20.3545
ltibia 35.6866
lfoot -3.92646 10.5895
ltoes -2.41382
282
root 10.6145 17.3365 18.9323 -4.46921 -5.43087 -1.16244
lowerback 5.37992 0.878419 2.70236
upperback 2.27711 1.30218 0.114616
thorax -0.615068 0.664273 -1.47261
lowerneck -10.4325 1.30608 0.00675012
upperneck -1.4413 1.80798 -3.80973
head 1.35359 0.813118 -1.12321
rclavicle 3.59365e-015 -1.09083e-014
rhumerus -11.5489 12.3612 -85.1565
rradius 51.5447
rwrist -17.6162
rhand -25.6223 19.6918
rfingers 7.12502
rthumb 0.910563 -10.286
lclavicle 3.59365e-015 -1.09083e-014
lhumerus -45.2767 28.2385 71.0287
lradius 16.5173
lwrist 6.84576
lhand -20.6068 21.4025
lfingers 7.12502
lthumb 5.75396 51.3044
rfemur 18.5913 4.96937 23.8261
rtibia 30.8454
rfoot -5.05658 -1.22642
rtoes -29.9048
lfemur -25.4578 -2.28973 -20.8399
ltibia 36.2434
lfoot -4.55361 10.0708
ltoes -2.64602
283
root 10.6458 17.362 19.1257 -4.44029 -5.43312 -0.991838
lowerback 5.3435 0.915015 2.70439
upperback 2.13574 1.35156 0.0418384
thorax -0.736058 0.686269 -1.55227
lowerneck -10.0518 1.2352 -0.395153
upperneck -1.68964 1.73933 -3.42553
head 1.19388 0.795921 -0.935511
rclavicle 3.33663e-015 3.57812e-015
rhumerus -12.5384 12.0323 -85.4289
rradius 51.3544
rwrist -17.3457
rhand -25.3831 20.3827
rfingers 7.12502
rthumb 1.14152 -9.59404
lclavicle 3.33663e-015 3.57812e-015
lhumerus -44.5388 27.2176 72.1122
lradius 17.0035
lwrist 8.01503
lhand -20.1694 21.9569
lfingers 7.12502
lthumb 6.17632 51.8469
rfemur 17.336 5.03879 23.3422
rtibia 33.644
rfoot -2.30331 -1.08434
rtoes -30.7486
lfemur -25.0313 -2.14567 -21.271
ltibia 36.6884
lfoot -5.37101 9.63359
ltoes -3.04841
284
root 10.6836 17.3971 19.3268 -4.47567 -5.46618 -0.646143
lowerback 5.42405 0.888638 2.51725
upperback 1.89105 1.31225 -0.0382283
thorax -1.03689 0.659906 -1.53201
lowerneck -9.72267 1.29623 -0.545005
upperneck -1.55662 1.83548 -3.38986
head 1.17864 0.846378 -0.895801
rclavicle 4.55186e-015 -7.95139e-016
rhumerus -13.3239 12.1644 -85.8501
rradius 50.6779
rwrist -17.467
rhand -25.5452 20.471
rfingers 7.12502
rthumb 0.985032 -9.50645
lclavicle 4.55186e-015 -7.95139e-016
lhumerus -44.1852 26.2227 73.0431
lradius 17.6356
lwrist 9.02239
lhand -19.9109 22
lfingers 7.12502
lthumb 6.42584 51.8825
rfemur 16.1202 5.17319 22.621
rtibia 36.349
rfoot 0.735435 -0.747772
rtoes -31.9857
lfemur -24.4372 -2.10045 -21.9169
ltibia 37.046
lfoot -6.20577 9.55629
ltoes -1.79937
285
root 10.7193 17.4138 19.5249 -4.57015 -5.53698 -0.190332
lowerback 5.3273 0.913039 2.23502
upperback 1.88178 1.32599 -0.167412
thorax -0.995537 0.667008 -1.50547
lowerneck -10.0006 1.34062 -0.393708
upperneck -1.21497 1.89718 -3.59137
head 1.3439 0.864695 -0.982298
rclavicle 5.63896e-015 -5.46658e-015
rhumerus -13.8788 12.4976 -86.168
rradius 50.0791
rwrist -18.0027
rhand -25.9475 20.5018
rfingers 7.12502
rthumb 0.596469 -9.47714
lclavicle 5.63896e-015 -5.46658e-015
lhumerus -43.3965 25.3034 74.112
lradius 18.399
lwrist 10.0883
lhand -19.6419 22.3909
lfingers 7.12502
lthumb 6.6855 52.2654
rfemur 14.9085 5.28488 21.8
rtibia 39.0941
rfoot 3.77909 -0.319275
rtoes -34.7773
lfemur -23.6544 -2.2237 -22.65
ltibia 37.2794
lfoot -7.17047 9.70717
ltoes -0.659576
286
root 10.7477 17.4206 19.7062 -4.55603 -5.72879 -0.0430946
lowerback 5.04849 1.0152 2.32082
upperback 2.03816 1.45608 -0.28377
thorax -0.668656 0.738167 -1.67234
lowerneck -10.0631 1.25429 -0.638625
upperneck -1.49706 1.7955 -3.28421
head 1.25363 0.824906 -0.847126
rclavicle -9.25281e-015 -4.02539e-015
rhumerus -14.3107 12.6666 -86.4063
rradius 49.6501
rwrist -18.4653
rhand -26.1497 20.7173
rfingers 7.12502
rthumb 0.401206 -9.26203
lclavicle -9.25281e-015 -4.02539e-015
lhumerus -42.1886 24.2329 75.3125
lradius 19.2221
lwrist 11.4706
lhand -19.8123 22.7799
lfingers 7.12502
lthumb 6.521 52.6595
rfemur 13.446 5.57914 21.4606
rtibia 42.1001
rfoot 6.47817 -0.126846
rtoes -37.0885
lfemur -22.9533 -2.23563 -22.9856
ltibia 37.273
lfoot -8.04823 9.80719
ltoes 0.457696
